<?xml version="1.0" encoding="UTF-8"?>
<svg id="Capa_2" data-name="Capa 2" xmlns="http://www.w3.org/2000/svg" viewBox="0 0 360 648">
  <defs>
    <style>
      .cls-1, .cls-2 {
        stroke-width: 0px;
      }

      .cls-2 {
        fill: #ffefb5;
      }
    </style>
  </defs>
  <g id="Capa_1-2" data-name="Capa 1">
    <g>
      <path class="cls-2" d="m27,647.5c-14.61,0-26.5-11.89-26.5-26.5v-39c0-14.61,11.89-26.5,26.5-26.5h13.5v-16.12c0-12.61,10.26-22.88,22.88-22.88h3.12v-6.88c0-9.86,5.91-18.64,15.05-22.35l.28-.12,16.7-196.51-.26-.16c-22.41-13.75-41.16-33.08-54.21-55.88-13.46-23.51-20.57-50.35-20.57-77.6C23.5,70.71,93.71.5,180,.5s156.5,70.21,156.5,156.5c0,27.25-7.11,54.09-20.57,77.6-13.05,22.81-31.8,42.13-54.21,55.88l-.26.16,16.7,196.51.28.12c9.14,3.71,15.05,12.49,15.05,22.35v6.88h3.12c12.61,0,22.88,10.26,22.88,22.88v16.12h13.5c14.61,0,26.5,11.89,26.5,26.5v39c0,14.61-11.89,26.5-26.5,26.5H27Z"/>
      <path class="cls-1" d="m180,1c41.67,0,80.84,16.23,110.31,45.69,29.46,29.46,45.69,68.64,45.69,110.31,0,27.17-7.09,53.91-20.5,77.35-13.01,22.74-31.69,42-54.03,55.71l-.53.32.05.61,16.65,195.9.05.61.57.23c8.95,3.64,14.74,12.23,14.74,21.89v7.38h3.62c12.34,0,22.38,10.04,22.38,22.38v16.62h14c14.34,0,26,11.66,26,26v39c0,14.34-11.66,26-26,26H27c-14.34,0-26-11.66-26-26v-39c0-14.34,11.66-26,26-26h14v-16.62c0-12.34,10.04-22.38,22.38-22.38h3.62v-7.38c0-9.66,5.79-18.25,14.74-21.89l.57-.23.05-.61,16.65-195.9.05-.61-.53-.32c-22.34-13.71-41.03-32.97-54.04-55.71-13.41-23.44-20.5-50.19-20.5-77.35,0-41.67,16.23-80.84,45.69-110.31C99.16,17.23,138.33,1,180,1m0-1C93.29,0,23,70.29,23,157c0,56.66,30.02,106.3,75.01,133.91l-16.65,195.9c-9.01,3.66-15.36,12.49-15.36,22.82v6.38h-2.62c-12.91,0-23.38,10.47-23.38,23.38v15.62h-13c-14.91,0-27,12.09-27,27v39c0,14.91,12.09,27,27,27h306c14.91,0,27-12.09,27-27v-39c0-14.91-12.09-27-27-27h-13v-15.62c0-12.91-10.47-23.38-23.38-23.38h-2.62v-6.38c0-10.32-6.36-19.16-15.36-22.82l-16.65-195.9c45-27.61,75.01-77.25,75.01-133.91C337,70.29,266.71,0,180,0h0Z"/>
    </g>
  </g>
</svg>